<svg width="25" height="24" viewBox="0 0 25 24" fill="none" xmlns="http://www.w3.org/2000/svg">
<g clip-path="url(#clip0_2369_4583)">
<path d="M22.1259 18.7036C21.763 19.542 21.3334 20.3139 20.8356 21.0235C20.1571 21.9909 19.6016 22.6605 19.1734 23.0323C18.5098 23.6427 17.7987 23.9552 17.0372 23.973C16.4906 23.973 15.8313 23.8175 15.0639 23.5019C14.294 23.1879 13.5865 23.0323 12.9396 23.0323C12.2611 23.0323 11.5334 23.1879 10.755 23.5019C9.97552 23.8175 9.34754 23.9819 8.8674 23.9982C8.13721 24.0293 7.40938 23.7078 6.68288 23.0323C6.21919 22.6279 5.63921 21.9346 4.94442 20.9524C4.19896 19.9035 3.58609 18.6873 3.10596 17.3006C2.59175 15.8029 2.33398 14.3526 2.33398 12.9485C2.33398 11.3401 2.68153 9.95285 3.37765 8.79037C3.92475 7.85662 4.65258 7.12005 5.56351 6.57932C6.47444 6.0386 7.45871 5.76305 8.51868 5.74542C9.09866 5.74542 9.85923 5.92483 10.8044 6.27741C11.7469 6.63117 12.352 6.81058 12.6174 6.81058C12.8157 6.81058 13.488 6.6008 14.6277 6.18259C15.7054 5.79475 16.615 5.63417 17.3602 5.69742C19.3794 5.86038 20.8964 6.65636 21.9052 8.09039C20.0993 9.18458 19.206 10.7171 19.2238 12.6831C19.2401 14.2145 19.7956 15.4888 20.8875 16.5007C21.3823 16.9703 21.9348 17.3332 22.5496 17.591C22.4163 17.9776 22.2756 18.348 22.1259 18.7036ZM17.495 0.480396C17.495 1.68067 17.0565 2.80136 16.1824 3.83866C15.1276 5.07181 13.8518 5.78438 12.4683 5.67194C12.4507 5.52795 12.4405 5.3764 12.4405 5.21714C12.4405 4.06488 12.9421 2.83173 13.8329 1.82347C14.2776 1.31296 14.8432 0.888487 15.5291 0.549875C16.2135 0.216314 16.8609 0.0318484 17.4698 0.000259399C17.4876 0.160717 17.495 0.321185 17.495 0.480381V0.480396Z" fill="#010F1C"/>
</g>
<defs>
<clipPath id="clip0_2369_4583">
<rect width="24" height="24" fill="white" transform="translate(0.333984)"/>
</clipPath>
</defs>
</svg>
