<svg width="56" height="56" viewBox="0 0 56 56" fill="none" xmlns="http://www.w3.org/2000/svg">
<path d="M50.1667 51.3337H5.83333C2.618 51.3337 0 48.7157 0 45.5003V40.8337C0 40.1897 0.522667 39.667 1.16667 39.667H2.33333C4.907 39.667 7 37.574 7 35.0003C7 32.4267 4.907 30.3337 2.33333 30.3337H1.16667C0.522667 30.3337 0 29.811 0 29.167V24.5003C0 21.285 2.618 18.667 5.83333 18.667H50.1667C53.382 18.667 56 21.285 56 24.5003V29.167C56 29.811 55.4773 30.3337 54.8333 30.3337H53.6667C51.093 30.3337 49 32.4267 49 35.0003C49 36.2463 49.4853 37.4177 50.3673 38.2997C51.247 39.1817 52.4183 39.667 53.6643 39.667H54.831C55.475 39.667 55.9977 40.1897 55.9977 40.8337V45.5003C56 48.7157 53.382 51.3337 50.1667 51.3337ZM2.33333 42.0003V45.5003C2.33333 47.43 3.90367 49.0003 5.83333 49.0003H50.1667C52.0963 49.0003 53.6667 47.43 53.6667 45.5003V42.0003C51.7977 42.0003 50.0383 41.2723 48.7177 39.9517C47.3947 38.6287 46.6667 36.8693 46.6667 35.0003C46.6667 31.141 49.8073 28.0003 53.6667 28.0003V24.5003C53.6667 22.5707 52.0963 21.0003 50.1667 21.0003H5.83333C3.90367 21.0003 2.33333 22.5707 2.33333 24.5003V28.0003C6.19267 28.0003 9.33333 31.141 9.33333 35.0003C9.33333 38.8597 6.19267 42.0003 2.33333 42.0003Z" fill="#F6F6F6"/>
<path d="M19.8332 23.3337C19.1892 23.3337 18.6665 22.811 18.6665 22.167V19.8337C18.6665 19.1897 19.1892 18.667 19.8332 18.667C20.4772 18.667 20.9998 19.1897 20.9998 19.8337V22.167C20.9998 22.811 20.4772 23.3337 19.8332 23.3337Z" fill="#F6F6F6"/>
<path d="M19.8332 43.0761C19.1892 43.0761 18.6665 42.5535 18.6665 41.9095V37.9638C18.6665 37.3198 19.1892 36.7971 19.8332 36.7971C20.4772 36.7971 20.9998 37.3175 20.9998 37.9638V41.9118C20.9998 42.5558 20.4772 43.0761 19.8332 43.0761ZM19.8332 33.2061C19.1892 33.2061 18.6665 32.6835 18.6665 32.0395V28.0915C18.6665 27.4475 19.1892 26.9248 19.8332 26.9248C20.4772 26.9248 20.9998 27.4475 20.9998 28.0915V32.0395C20.9998 32.6835 20.4772 33.2061 19.8332 33.2061Z" fill="#F6F6F6"/>
<path d="M19.8332 51.3337C19.1892 51.3337 18.6665 50.811 18.6665 50.167V47.8337C18.6665 47.1897 19.1892 46.667 19.8332 46.667C20.4772 46.667 20.9998 47.1897 20.9998 47.8337V50.167C20.9998 50.811 20.4772 51.3337 19.8332 51.3337Z" fill="#F6F6F6"/>
<path d="M5.83314 21.0004C5.35947 21.0004 4.91381 20.7111 4.74114 20.2421C4.51481 19.6377 4.82047 18.9657 5.42481 18.7417L42.5248 4.88874C44.3285 4.21208 46.4471 5.22474 47.0631 7.04241L51.2701 19.4581C51.4755 20.0694 51.1488 20.7297 50.5398 20.9374C49.9355 21.1451 49.2681 20.8161 49.0605 20.2071L44.8535 7.79141C44.6481 7.18474 43.9435 6.85341 43.3391 7.07274L6.23914 20.9257C6.10614 20.9771 5.96847 21.0004 5.83314 21.0004Z" fill="#F6F6F6"/>
</svg>
