<svg width="25" height="24" viewBox="0 0 25 24" fill="none" xmlns="http://www.w3.org/2000/svg">
<g clip-path="url(#clip0_2369_4579)">
<path d="M24.667 12C24.667 5.37264 19.2944 0 12.667 0C6.03963 0 0.666992 5.37264 0.666992 12C0.666992 17.6275 4.54155 22.3498 9.76827 23.6467V15.6672H7.29387V12H9.76827V10.4198C9.76827 6.33552 11.6168 4.4424 15.6267 4.4424C16.387 4.4424 17.6988 4.59168 18.2355 4.74048V8.06448C17.9523 8.03472 17.4603 8.01984 16.8492 8.01984C14.8817 8.01984 14.1214 8.76528 14.1214 10.703V12H18.0411L17.3676 15.6672H14.1214V23.9122C20.0633 23.1946 24.6675 18.1354 24.6675 12H24.667Z" fill="#0866FF"/>
<path d="M17.3667 15.6672L18.0402 12H14.1205V10.703C14.1205 8.76528 14.8808 8.01984 16.8483 8.01984C17.4594 8.01984 17.9514 8.03472 18.2346 8.06448V4.74048C17.6979 4.5912 16.3861 4.4424 15.6258 4.4424C11.6158 4.4424 9.76737 6.33552 9.76737 10.4198V12H7.29297V15.6672H9.76737V23.6467C10.6957 23.8771 11.6667 24 12.6661 24C13.1581 24 13.6434 23.9698 14.12 23.9122V15.6672H17.3663H17.3667Z" fill="white"/>
</g>
<defs>
<clipPath id="clip0_2369_4579">
<rect width="24" height="24" fill="white" transform="translate(0.666992)"/>
</clipPath>
</defs>
</svg>
