<svg width="38" height="17" viewBox="0 0 38 17" fill="none" xmlns="http://www.w3.org/2000/svg">
<path fill-rule="evenodd" clip-rule="evenodd" d="M17.4294 12.952V8.41153H19.7728C20.7331 8.41153 21.5436 8.08976 22.2044 7.45517L22.363 7.29428C23.5699 5.9804 23.4906 3.9336 22.2044 2.71804C21.5612 2.0745 20.6803 1.72592 19.7728 1.7438H16.011V12.952H17.4294ZM17.4296 7.03505V3.12022H19.8086C20.3197 3.12022 20.8043 3.31685 21.1656 3.67437C21.9321 4.42516 21.9498 5.67648 21.2096 6.45409C20.8484 6.83842 20.3373 7.05293 19.8086 7.03505H17.4296Z" fill="#3C4043"/>
<path fill-rule="evenodd" clip-rule="evenodd" d="M28.9792 5.88209C28.3714 5.31899 27.5432 5.03298 26.4948 5.03298C25.1469 5.03298 24.1338 5.53351 23.4642 6.52562L24.7152 7.3211C25.1734 6.64182 25.7989 6.30217 26.5917 6.30217C27.0939 6.30217 27.5785 6.48987 27.9573 6.82951C28.3273 7.15128 28.5387 7.61606 28.5387 8.10765V8.43835C27.9925 8.13446 27.3054 7.97358 26.4596 7.97358C25.4729 7.97358 24.68 8.20596 24.0897 8.67968C23.4995 9.15339 23.1999 9.77905 23.1999 10.5745C23.1823 11.2985 23.4907 11.9867 24.0369 12.4515C24.5919 12.952 25.2967 13.2023 26.1248 13.2023C27.1027 13.2023 27.878 12.7643 28.4683 11.8884H28.5299V12.952H29.8867V8.22384C29.8867 7.23172 29.5871 6.44518 28.9792 5.88209ZM25.1296 11.5398C24.8388 11.3253 24.6626 10.9767 24.6626 10.6013C24.6626 10.1812 24.8564 9.83267 25.2353 9.55559C25.623 9.27851 26.1076 9.1355 26.6804 9.1355C27.4734 9.12657 28.0902 9.30533 28.5307 9.66284C28.5307 10.2706 28.2928 10.798 27.8258 11.2449C27.4029 11.6739 26.8301 11.9152 26.231 11.9152C25.8345 11.9242 25.4468 11.7901 25.1296 11.5398Z" fill="#3C4043"/>
<path d="M32.9349 16.3217L37.6747 5.28325H36.1329L33.9393 10.789H33.9128L31.6663 5.28325H30.1246L33.2345 12.4604L31.4725 16.3217H32.9349Z" fill="#3C4043"/>
<path d="M12.5326 7.42834C12.5326 6.99038 12.4973 6.55242 12.4268 6.1234H6.44491V8.59922H9.87197C9.73101 9.3947 9.27289 10.1097 8.60334 10.5566V12.1655H10.6472C11.8454 11.0482 12.5326 9.3947 12.5326 7.42834Z" fill="#4285F4"/>
<path d="M6.44516 13.7207C8.15429 13.7207 9.59886 13.1487 10.6472 12.1655L8.60334 10.5566C8.03069 10.9499 7.29972 11.1734 6.44516 11.1734C4.7889 11.1734 3.38812 10.0382 2.88595 8.51878H0.780381V10.1812C1.85519 12.3532 4.04886 13.7207 6.44516 13.7207Z" fill="#34A853"/>
<path d="M2.88595 8.51878C2.62161 7.7233 2.62185 6.85634 2.88619 6.05193V4.3984H0.780284C-0.127282 6.21281 -0.127282 8.35792 0.780284 10.1723L2.88595 8.51878Z" fill="#FBBC04"/>
<path d="M6.44516 3.39732C7.35258 3.37945 8.22476 3.72803 8.8767 4.36263L10.6915 2.5214C9.53744 1.43097 8.02214 0.832122 6.44516 0.849998C4.04886 0.849998 1.85509 2.22647 0.780284 4.3984L2.88595 6.06084C3.38812 4.53245 4.7889 3.39732 6.44516 3.39732Z" fill="#EA4335"/>
</svg>
