<svg width="36" height="23" viewBox="0 0 36 23" fill="none" xmlns="http://www.w3.org/2000/svg">
<path d="M36 11.3745C36 17.5238 31.0249 22.4989 24.8756 22.4989C22.2799 22.4989 19.9005 21.6028 18.0155 20.1195C20.6112 18.0801 22.249 14.9281 22.249 11.3745C22.249 7.82082 20.5803 4.66889 18.0155 2.6294C19.9005 1.14614 22.2799 0.25 24.8756 0.25C31.0249 0.25 36 5.25601 36 11.3745Z" fill="#F79E1B"/>
<path d="M18.0155 2.6294C18.0155 2.6294 18.0155 2.6294 18.0155 2.6294C20.5803 4.66889 22.249 7.82082 22.249 11.3745C22.249 14.9281 20.6112 18.0801 18.0155 20.1195L17.9845 20.1195C15.4197 18.1109 13.7511 14.9281 13.7511 11.3745C13.7511 7.82088 15.4197 4.66895 17.9845 2.62947C17.9845 2.62944 17.9846 2.62949 17.9845 2.62947L18.0155 2.6294Z" fill="#FF5F00"/>
<path d="M13.7511 11.3745C13.7511 7.82088 15.4197 4.66895 17.9845 2.62947C16.0996 1.1462 13.7202 0.250048 11.1245 0.250048C4.97511 0.250048 0 5.22516 0 11.3745C0 17.5239 4.97511 22.499 11.1245 22.499C13.7202 22.499 16.0995 21.6028 17.9845 20.1195C15.4197 18.1109 13.7511 14.9281 13.7511 11.3745Z" fill="#EB001B"/>
</svg>
