<svg width="35" height="10" viewBox="0 0 35 10" fill="none" xmlns="http://www.w3.org/2000/svg">
<path fill-rule="evenodd" clip-rule="evenodd" d="M4.98133 0.000940024H2.33618C2.15517 0.000940024 2.00123 0.132481 1.973 0.311091L0.903165 7.09326C0.881902 7.22713 0.985555 7.34776 1.12132 7.34776H2.38414C2.56515 7.34776 2.7191 7.21622 2.74732 7.03725L3.03587 5.20801C3.0637 5.02887 3.21803 4.8975 3.39866 4.8975H4.23602C5.97848 4.8975 6.98404 4.05439 7.24679 2.38372C7.36511 1.65281 7.2518 1.07851 6.9094 0.676185C6.53352 0.234671 5.86661 0.000940024 4.98133 0.000940024ZM5.28651 2.47804C5.14189 3.4271 4.41666 3.4271 3.71544 3.4271H3.31627L3.5963 1.6546C3.61293 1.54758 3.70575 1.46866 3.81406 1.46866H3.997C4.47467 1.46866 4.92531 1.46866 5.15818 1.74087C5.29689 1.90337 5.33949 2.14462 5.28651 2.47804ZM12.8883 2.44761H11.6216C11.5137 2.44761 11.4205 2.52654 11.4038 2.63374L11.3478 2.98792L11.2592 2.8596C10.985 2.46157 10.3735 2.3286 9.7632 2.3286C8.36333 2.3286 7.16786 3.38863 6.935 4.87567C6.814 5.61732 6.98601 6.32656 7.40681 6.82123C7.79289 7.27599 8.34525 7.46552 9.00231 7.46552C10.1301 7.46552 10.7557 6.74034 10.7557 6.74034L10.6991 7.09237C10.6778 7.22695 10.7815 7.34758 10.9164 7.34758H12.0575C12.239 7.34758 12.392 7.21603 12.4206 7.03707L13.1053 2.7021C13.1269 2.56877 13.0237 2.44761 12.8883 2.44761ZM11.1226 4.91272C11.0004 5.63628 10.426 6.122 9.69357 6.122C9.32575 6.122 9.03167 6.00407 8.84302 5.78053C8.65579 5.55861 8.58456 5.24256 8.64416 4.89071C8.75835 4.17322 9.34239 3.67175 10.0637 3.67175C10.4233 3.67175 10.7158 3.79112 10.9084 4.01662C11.1013 4.24445 11.1779 4.5623 11.1226 4.91272ZM18.3616 2.44743H19.6346C19.8129 2.44743 19.9169 2.64734 19.8156 2.79356L15.5819 8.90388C15.5134 9.00285 15.4004 9.06173 15.2798 9.06173H14.0084C13.8295 9.06173 13.7249 8.86021 13.8286 8.71364L15.1468 6.85309L13.7448 2.73897C13.6963 2.59598 13.8019 2.44743 13.954 2.44743H15.2048C15.3673 2.44743 15.5107 2.5541 15.5576 2.70962L16.3017 5.19441L18.0574 2.60868C18.1261 2.50774 18.2403 2.44743 18.3616 2.44743Z" fill="#253B80"/>
<path fill-rule="evenodd" clip-rule="evenodd" d="M32.1634 7.09268L33.249 0.186485C33.2657 0.0792835 33.3586 0.000357936 33.4665 0H34.6886C34.8236 0 34.9272 0.120982 34.9059 0.25485L33.8354 7.03667C33.8075 7.21563 33.6535 7.34718 33.4722 7.34718H32.3807C32.2458 7.34718 32.1421 7.22655 32.1634 7.09268ZM23.8496 0.000358422H21.204C21.0234 0.000358422 20.8694 0.1319 20.8412 0.31051L19.7713 7.09268C19.75 7.22655 19.8537 7.34718 19.9888 7.34718H21.3463C21.4724 7.34718 21.5804 7.25518 21.6001 7.12991L21.9036 5.20743C21.9316 5.02829 22.0858 4.89692 22.2664 4.89692H23.1034C24.8462 4.89692 25.8516 4.0538 26.1145 2.38314C26.2332 1.65223 26.1192 1.07792 25.7769 0.675603C25.4013 0.234089 24.7349 0.000358422 23.8496 0.000358422ZM24.1548 2.47745C24.0105 3.42652 23.2852 3.42652 22.5836 3.42652H22.1848L22.4653 1.65402C22.4819 1.547 22.5739 1.46807 22.6826 1.46807H22.8655C23.3429 1.46807 23.7939 1.46807 24.0266 1.74028C24.1655 1.90279 24.2078 2.14404 24.1548 2.47745ZM31.7559 2.44703H30.4901C30.3813 2.44703 30.2889 2.52595 30.2726 2.63316L30.2166 2.98734L30.1276 2.85901C29.8534 2.46099 29.2423 2.32802 28.632 2.32802C27.2321 2.32802 26.037 3.38804 25.8042 4.87509C25.6835 5.61673 25.8548 6.32598 26.2756 6.82065C26.6624 7.27541 27.214 7.46494 27.8711 7.46494C28.9989 7.46494 29.6243 6.73976 29.6243 6.73976L29.5679 7.09179C29.5466 7.22637 29.6503 7.34699 29.7861 7.34699H30.9266C31.1072 7.34699 31.2612 7.21545 31.2894 7.03648L31.9744 2.70152C31.9954 2.56819 31.8917 2.44703 31.7559 2.44703ZM29.9903 4.91213C29.8688 5.6357 29.2937 6.12142 28.5611 6.12142C28.194 6.12142 27.8994 6.00348 27.7106 5.77995C27.5233 5.55803 27.453 5.24197 27.5119 4.89012C27.6266 4.17264 28.2099 3.67117 28.9313 3.67117C29.291 3.67117 29.5833 3.79054 29.7761 4.01604C29.9698 4.24387 30.0464 4.56171 29.9903 4.91213Z" fill="#179BD7"/>
</svg>
