<svg width="761" height="218" viewBox="0 0 761 218" fill="none" xmlns="http://www.w3.org/2000/svg">
<path d="M67.645 217.712C56.8155 217.712 47.5294 216.221 39.7866 213.239C32.0961 210.31 25.9751 206.308 21.4235 201.233C16.872 196.158 13.9161 190.456 12.5559 184.125L43.4749 179.966C44.4166 182.373 45.9076 184.622 47.9479 186.715C49.9883 188.808 52.6825 190.482 56.0308 191.737C59.4314 193.045 63.5643 193.699 68.4298 193.699C75.7017 193.699 81.692 191.921 86.4004 188.363C91.1612 184.858 93.5416 178.972 93.5416 170.706V148.655H92.1291C90.6642 152.003 88.4669 155.168 85.5372 158.15C82.6075 161.132 78.8407 163.565 74.2369 165.448C69.633 167.332 64.1398 168.274 57.7572 168.274C48.7065 168.274 40.4667 166.181 33.0378 161.996C25.6612 157.758 19.7756 151.297 15.381 142.612C11.0387 133.876 8.86762 122.837 8.86762 109.496C8.86762 95.8416 11.0911 84.4366 15.5379 75.2813C19.9848 66.1259 25.8966 59.2725 33.2732 54.721C40.7021 50.1694 48.8373 47.8937 57.6788 47.8937C64.4276 47.8937 70.0777 49.0446 74.6292 51.3466C79.1808 53.5962 82.8429 56.4212 85.6157 59.8218C88.4408 63.1701 90.6119 66.466 92.1291 69.7096H93.3847V49.4632H126.579V171.177C126.579 181.431 124.068 190.011 119.046 196.917C114.023 203.823 107.065 209.002 98.1716 212.455C89.3301 215.96 79.1546 217.712 67.645 217.712ZM68.3513 143.162C73.7399 143.162 78.2914 141.828 82.0058 139.16C85.7726 136.439 88.65 132.568 90.638 127.545C92.6784 122.471 93.6985 116.402 93.6985 109.339C93.6985 102.277 92.7045 96.1555 90.7165 90.9762C88.7285 85.7445 85.8511 81.69 82.0843 78.8126C78.3175 75.9352 73.7399 74.4965 68.3513 74.4965C62.8581 74.4965 58.2281 75.9876 54.4613 78.9696C50.6945 81.8993 47.8433 85.98 45.9076 91.2116C43.9719 96.4432 43.004 102.486 43.004 109.339C43.004 116.297 43.9719 122.314 45.9076 127.388C47.8956 132.411 50.7468 136.308 54.4613 139.081C58.2281 141.801 62.8581 143.162 68.3513 143.162ZM208.114 172.354C195.715 172.354 185.043 169.843 176.097 164.821C167.203 159.746 160.35 152.579 155.536 143.319C150.723 134.006 148.317 122.994 148.317 110.281C148.317 97.8819 150.723 87.0001 155.536 77.6355C160.35 68.2709 167.125 60.9728 175.861 55.7411C184.65 50.5095 194.957 47.8937 206.78 47.8937C214.732 47.8937 222.135 49.1754 228.989 51.7389C235.894 54.2501 241.911 58.0431 247.038 63.1177C252.217 68.1924 256.245 74.575 259.123 82.2655C262 89.9037 263.439 98.8498 263.439 109.104V118.285H161.657V97.568H231.971C231.971 92.7549 230.924 88.4912 228.832 84.7767C226.739 81.0622 223.835 78.1587 220.121 76.066C216.459 73.9211 212.195 72.8486 207.33 72.8486C202.255 72.8486 197.756 74.0257 193.832 76.3799C189.961 78.6818 186.926 81.7947 184.729 85.7184C182.532 89.5898 181.407 93.9059 181.355 98.6667V118.364C181.355 124.328 182.453 129.481 184.65 133.823C186.9 138.166 190.065 141.514 194.146 143.868C198.227 146.222 203.066 147.399 208.664 147.399C212.378 147.399 215.779 146.876 218.865 145.83C221.952 144.784 224.594 143.214 226.791 141.121C228.989 139.029 230.663 136.465 231.814 133.431L262.733 135.471C261.163 142.9 257.946 149.387 253.08 154.933C248.267 160.426 242.042 164.716 234.403 167.803C226.817 170.837 218.054 172.354 208.114 172.354ZM349.368 49.4632V74.575H276.78V49.4632H349.368ZM293.259 20.5846H326.689V132.96C326.689 136.047 327.16 138.453 328.102 140.18C329.044 141.854 330.351 143.031 332.026 143.711C333.752 144.391 335.74 144.731 337.99 144.731C339.559 144.731 341.129 144.6 342.698 144.339C344.268 144.025 345.471 143.79 346.308 143.633L351.566 168.509C349.892 169.032 347.537 169.634 344.503 170.314C341.469 171.046 337.78 171.491 333.438 171.648C325.381 171.962 318.319 170.889 312.25 168.431C306.234 165.972 301.551 162.153 298.203 156.973C294.855 151.794 293.207 145.254 293.259 137.355V20.5846ZM575.728 170V49.4632H609.158V170H575.728ZM592.522 33.9252C587.552 33.9252 583.288 32.2773 579.73 28.9813C576.225 25.6331 574.473 21.6309 574.473 16.9747C574.473 12.3709 576.225 8.42101 579.73 5.12509C583.288 1.77684 587.552 0.102711 592.522 0.102711C597.492 0.102711 601.729 1.77684 605.235 5.12509C608.792 8.42101 610.571 12.3709 610.571 16.9747C610.571 21.6309 608.792 25.6331 605.235 28.9813C601.729 32.2773 597.492 33.9252 592.522 33.9252ZM669.368 100.315V170H635.938V49.4632H667.798V70.7298H669.211C671.879 63.7194 676.352 58.1738 682.63 54.0932C688.908 49.9602 696.52 47.8937 705.466 47.8937C713.837 47.8937 721.135 49.7248 727.36 53.3869C733.586 57.049 738.425 62.2807 741.878 69.0818C745.331 75.8306 747.058 83.8873 747.058 93.2519V170H713.627V99.216C713.68 91.8394 711.796 86.0846 707.977 81.9516C704.158 77.7663 698.9 75.6737 692.204 75.6737C687.705 75.6737 683.729 76.6415 680.276 78.5772C676.875 80.5129 674.207 83.338 672.271 87.0525C670.388 90.7146 669.42 95.1353 669.368 100.315Z" fill="#FAFAFA"/>
<path d="M525.701 121.267L415.209 169.922V138.139L490.858 107.77L489.838 109.418V105.494L490.858 107.142L415.209 76.7724V44.9902L525.701 93.6444V121.267Z" fill="#EF404A"/>
</svg>
